# Made in Blockbench 5.0.7
mtllib athen-catenary-7m-1.mtl

o sssss
v 0.3965711366419562 6.07392851479455 0.0625
v 0.3965711366419562 6.07392851479455 -0.0625
v 0.4444065656875926 5.958443573230639 0.0625
v 0.4444065656875926 5.958443573230639 -0.0625
v 0.05011631195022348 5.930422227657641 -0.0625
v 0.05011631195022348 5.930422227657641 0.0625
v 0.0979517409958599 5.8149372860937305 -0.0625
v 0.0979517409958599 5.8149372860937305 0.0625
vt 0.9375 1
vt 1 1
vt 1 0.9375
vt 0.9375 0.9375
vt 0 1
vt 0.125 1
vt 0.125 0.9375
vt 0 0.9375
vt 0 1
vt 0.0625 1
vt 0.0625 0.9375
vt 0 0.9375
vt 0.19140625 0.7041015625
vt 0.31640625 0.7041015625
vt 0.31640625 0.6416015625
vt 0.19140625 0.6416015625
vt 0 1
vt 0.0625 1
vt 0.0625 0.875
vt 0 0.875
vt 0 1
vt 0.0625 1
vt 0.0625 0.875
vt 0 0.875
vn 0 0 -1
vn 0.9238795325112867 0.3826834323650897 0
vn 0 0 1
vn -0.9238795325112867 -0.3826834323650897 0
vn -0.3826834323650897 0.9238795325112867 0
vn 0.3826834323650897 -0.9238795325112867 0
usemtl m_d705bc15-3655-67f5-5943-974c5a7300bd
f 4/4/1 7/3/1 5/2/1 2/1/1
f 3/8/2 4/7/2 2/6/2 1/5/2
f 8/12/3 3/11/3 1/10/3 6/9/3
f 7/16/4 8/15/4 6/14/4 5/13/4
f 6/20/5 1/19/5 2/18/5 5/17/5
f 7/24/6 4/23/6 3/22/6 8/21/6
o cube
v 2.1626700163597565 6.873120135783866 0.0625
v 2.1626700163597565 6.873120135783866 0
v 2.1865877308825743 6.815377665001911 0.0625
v 2.1865877308825743 6.815377665001911 0
v 2.1049275455778007 6.849202421261048 0
v 2.1049275455778007 6.849202421261048 0.0625
v 2.128845260100619 6.7914599504790925 0
v 2.128845260100619 6.7914599504790925 0.0625
vt 0.9375 1
vt 1 1
vt 1 0.9375
vt 0.9375 0.9375
vt 0 1
vt 0.125 1
vt 0.125 0.9375
vt 0 0.9375
vt 0 1
vt 0.0625 1
vt 0.0625 0.9375
vt 0 0.9375
vt 0.19140625 0.7041015625
vt 0.31640625 0.7041015625
vt 0.31640625 0.6416015625
vt 0.19140625 0.6416015625
vt 0 1
vt 0.0625 1
vt 0.0625 0.875
vt 0 0.875
vt 0 1
vt 0.0625 1
vt 0.0625 0.875
vt 0 0.875
vn 0 0 -1
vn 0.9238795325112867 0.3826834323650897 0
vn 0 0 1
vn -0.9238795325112867 -0.3826834323650897 0
vn -0.3826834323650897 0.9238795325112867 0
vn 0.3826834323650897 -0.9238795325112867 0
usemtl m_d705bc15-3655-67f5-5943-974c5a7300bd
f 12/28/7 15/27/7 13/26/7 10/25/7
f 11/32/8 12/31/8 10/30/8 9/29/8
f 16/36/9 11/35/9 9/34/9 14/33/9
f 15/40/10 16/39/10 14/38/10 13/37/10
f 14/44/11 9/43/11 10/42/11 13/41/11
f 15/48/12 12/47/12 11/46/12 16/45/12
o cube
v 2.1626700163597565 6.873120135783866 0
v 2.1626700163597565 6.873120135783866 -0.0625
v 2.1865877308825743 6.815377665001911 0
v 2.1865877308825743 6.815377665001911 -0.0625
v 2.1049275455778007 6.849202421261048 -0.0625
v 2.1049275455778007 6.849202421261048 0
v 2.128845260100619 6.7914599504790925 -0.0625
v 2.128845260100619 6.7914599504790925 0
vt 0.9375 1
vt 1 1
vt 1 0.9375
vt 0.9375 0.9375
vt 0 1
vt 0.125 1
vt 0.125 0.9375
vt 0 0.9375
vt 0 1
vt 0.0625 1
vt 0.0625 0.9375
vt 0 0.9375
vt 0.19140625 0.7041015625
vt 0.31640625 0.7041015625
vt 0.31640625 0.6416015625
vt 0.19140625 0.6416015625
vt 0 1
vt 0.0625 1
vt 0.0625 0.875
vt 0 0.875
vt 0 1
vt 0.0625 1
vt 0.0625 0.875
vt 0 0.875
vn 0 0 -1
vn 0.9238795325112867 0.3826834323650897 0
vn 0 0 1
vn -0.9238795325112867 -0.3826834323650897 0
vn -0.3826834323650897 0.9238795325112867 0
vn 0.3826834323650897 -0.9238795325112867 0
usemtl m_d705bc15-3655-67f5-5943-974c5a7300bd
f 20/52/13 23/51/13 21/50/13 18/49/13
f 19/56/14 20/55/14 18/54/14 17/53/14
f 24/60/15 19/59/15 17/58/15 22/57/15
f 23/64/16 24/63/16 22/62/16 21/61/16
f 22/68/17 17/67/17 18/66/17 21/65/17
f 23/72/18 20/71/18 19/70/18 24/69/18
o rfr
v 2.1626700163597565 6.873120135783866 0
v 2.133810728032568 6.817681958710227 0
v 1.0250471865597914 7.394867725254019 0
v 1.0539064748869804 7.450305902327658 0
v 2.1626700163597565 6.873120135783866 0
v 1.0539064748869804 7.450305902327658 0
v 2.133810728032568 6.817681958710227 0
v 1.0250471865597914 7.394867725254019 0
vt 0.1875 0.75
vt 0.19140625 0.75
vt 0.19140625 0.828125
vt 0.1875 0.828125
vt 0 0.921875
vt 0 0.921875
vt 0 1
vt 0 1
vt 0.19140625 0.75
vt 0.1953125 0.75
vt 0.1953125 0.828125
vt 0.19140625 0.828125
vt 0 0.921875
vt 0 0.921875
vt 0 1
vt 0 1
vt 0.00390625 1
vt 0 1
vt 0 1
vt 0.00390625 1
vt 0.00390625 1
vt 0 1
vt 0 1
vt 0.00390625 1
vn 0 0 -1
vn 0 0 0
vn 0 0 1
vn 0 0 0
vn 0 0 0
vn 0 0 0
usemtl m_d705bc15-3655-67f5-5943-974c5a7300bd
f 25/73/19 26/74/19 27/75/19 28/76/19
f 29/77/20 25/78/20 28/79/20 30/80/20
f 31/81/21 29/82/21 30/83/21 32/84/21
f 26/85/22 31/86/22 32/87/22 27/88/22
f 32/89/23 30/90/23 28/91/23 27/92/23
f 26/93/24 25/94/24 29/95/24 31/96/24
o cube
v 0.5624999822318228 7.437500196967324 0.0625
v 0.5624999822318228 7.437500196967324 -0.0625
v 0.5624999822318228 7.312500196967324 0.0625
v 0.5624999822318228 7.312500196967324 -0.0625
v 0.06249998223182285 7.437500196967324 -0.0625
v 0.06249998223182285 7.437500196967324 0.0625
v 0.06249998223182285 7.312500196967324 -0.0625
v 0.06249998223182285 7.312500196967324 0.0625
vt 0.9375 1
vt 1 1
vt 1 0.9375
vt 0.9375 0.9375
vt 0 1
vt 0.125 1
vt 0.125 0.9375
vt 0 0.9375
vt 0 1
vt 0.0625 1
vt 0.0625 0.9375
vt 0 0.9375
vt 0.19140625 0.7041015625
vt 0.31640625 0.7041015625
vt 0.31640625 0.6416015625
vt 0.19140625 0.6416015625
vt 0 1
vt 0.0625 1
vt 0.0625 0.875
vt 0 0.875
vt 0 1
vt 0.0625 1
vt 0.0625 0.875
vt 0 0.875
vn 0 0 -1
vn 1 0 0
vn 0 0 1
vn -1 0 0
vn 0 1 0
vn 0 -1 0
usemtl m_d705bc15-3655-67f5-5943-974c5a7300bd
f 36/100/25 39/99/25 37/98/25 34/97/25
f 35/104/26 36/103/26 34/102/26 33/101/26
f 40/108/27 35/107/27 33/106/27 38/105/27
f 39/112/28 40/111/28 38/110/28 37/109/28
f 38/116/29 33/115/29 34/114/29 37/113/29
f 39/120/30 36/119/30 35/118/30 40/117/30
o cube
v 1.2499999822318228 7.312500196967324 0.0625
v 1.2499999822318228 7.312500196967324 -0.0625
v 1.2499999822318228 7.250000196967324 0.0625
v 1.2499999822318228 7.250000196967324 -0.0625
v 1.1874999822318228 7.312500196967324 -0.0625
v 1.1874999822318228 7.312500196967324 0.0625
v 1.1874999822318228 7.250000196967324 -0.0625
v 1.1874999822318228 7.250000196967324 0.0625
vt 0.9375 1
vt 1 1
vt 1 0.9375
vt 0.9375 0.9375
vt 0 1
vt 0.125 1
vt 0.125 0.9375
vt 0 0.9375
vt 0 1
vt 0.0625 1
vt 0.0625 0.9375
vt 0 0.9375
vt 0.19140625 0.7041015625
vt 0.31640625 0.7041015625
vt 0.31640625 0.6416015625
vt 0.19140625 0.6416015625
vt 0 1
vt 0.0625 1
vt 0.0625 0.875
vt 0 0.875
vt 0 1
vt 0.0625 1
vt 0.0625 0.875
vt 0 0.875
vn 0 0 -1
vn 1 0 0
vn 0 0 1
vn -1 0 0
vn 0 1 0
vn 0 -1 0
usemtl m_d705bc15-3655-67f5-5943-974c5a7300bd
f 44/124/31 47/123/31 45/122/31 42/121/31
f 43/128/32 44/127/32 42/126/32 41/125/32
f 48/132/33 43/131/33 41/130/33 46/129/33
f 47/136/34 48/135/34 46/134/34 45/133/34
f 46/140/35 41/139/35 42/138/35 45/137/35
f 47/144/36 44/143/36 43/142/36 48/141/36
o cube
v 0.125 1.5625 -0.1875
v 0.0625 1.5625 -0.1875
v 0.0625 8.375 -0.1875
v 0.125 8.375 -0.1875
v 0.125 1.5625 0.1875
v 0.125 8.375 0.1875
v 0.0625 1.5625 0.1875
v 0.0625 8.375 0.1875
vt 0.125 0.484375
vt 0.12890625 0.484375
vt 0.12890625 0.91015625
vt 0.125 0.91015625
vt 0 0.515625
vt 0.0234375 0.515625
vt 0.0234375 0.94140625
vt 0 0.94140625
vt 0.12890625 0.484375
vt 0.1328125 0.484375
vt 0.1328125 0.91015625
vt 0.12890625 0.91015625
vt 0.0234375 0.515625
vt 0.046875 0.515625
vt 0.046875 0.94140625
vt 0.0234375 0.94140625
vt 0.17578125 0.76953125
vt 0.171875 0.76953125
vt 0.171875 0.74609375
vt 0.17578125 0.74609375
vt 0.1796875 0.74609375
vt 0.17578125 0.74609375
vt 0.17578125 0.76953125
vt 0.1796875 0.76953125
vn 0 0 -1
vn 1 0 0
vn 0 0 1
vn -1 0 0
vn 0 1 0
vn 0 -1 0
usemtl m_d705bc15-3655-67f5-5943-974c5a7300bd
f 49/145/37 50/146/37 51/147/37 52/148/37
f 53/149/38 49/150/38 52/151/38 54/152/38
f 55/153/39 53/154/39 54/155/39 56/156/39
f 50/157/40 55/158/40 56/159/40 51/160/40
f 56/161/41 54/162/41 52/163/41 51/164/41
f 50/165/42 49/166/42 53/167/42 55/168/42
o cube
v 4.5 7.3125 -0.0625
v 0.25 7.3125 -0.0625
v 0.25 7.4375 -0.0625
v 4.5 7.4375 -0.0625
v 4.5 7.3125 0.0625
v 4.5 7.4375 0.0625
v 0.25 7.3125 0.0625
v 0.25 7.4375 0.0625
vt 0.125 0.9921875
vt 0.390625 0.9921875
vt 0.390625 1
vt 0.125 1
vt 0.23828125 0.7734375
vt 0.24609375 0.7734375
vt 0.24609375 0.78125
vt 0.23828125 0.78125
vt 0.125 0.984375
vt 0.390625 0.984375
vt 0.390625 0.9921875
vt 0.125 0.9921875
vt 0.23828125 0.765625
vt 0.24609375 0.765625
vt 0.24609375 0.7734375
vt 0.23828125 0.7734375
vt 0.390625 0.984375
vt 0.125 0.984375
vt 0.125 0.9765625
vt 0.390625 0.9765625
vt 0.390625 0.96875
vt 0.125 0.96875
vt 0.125 0.9765625
vt 0.390625 0.9765625
vn 0 0 -1
vn 1 0 0
vn 0 0 1
vn -1 0 0
vn 0 1 0
vn 0 -1 0
usemtl m_d705bc15-3655-67f5-5943-974c5a7300bd
f 57/169/43 58/170/43 59/171/43 60/172/43
f 61/173/44 57/174/44 60/175/44 62/176/44
f 63/177/45 61/178/45 62/179/45 64/180/45
f 58/181/46 63/182/46 64/183/46 59/184/46
f 64/185/47 62/186/47 60/187/47 59/188/47
f 58/189/48 57/190/48 61/191/48 63/192/48
o cube
v 0.6875 7.25 -0.125
v 0.625 7.25 -0.125
v 0.625 7.5 -0.125
v 0.6875 7.5 -0.125
v 0.6875 7.25 0.125
v 0.6875 7.5 0.125
v 0.625 7.25 0.125
v 0.625 7.5 0.125
vt 0.23828125 0.75
vt 0.2421875 0.75
vt 0.2421875 0.765625
vt 0.23828125 0.765625
vt 0.171875 0.84375
vt 0.1875 0.84375
vt 0.1875 0.859375
vt 0.171875 0.859375
vt 0.2421875 0.84375
vt 0.24609375 0.84375
vt 0.24609375 0.859375
vt 0.2421875 0.859375
vt 0.1953125 0.875
vt 0.2109375 0.875
vt 0.2109375 0.890625
vt 0.1953125 0.890625
vt 0.24609375 0.84375
vt 0.2421875 0.84375
vt 0.2421875 0.828125
vt 0.24609375 0.828125
vt 0.24609375 0.8125
vt 0.2421875 0.8125
vt 0.2421875 0.828125
vt 0.24609375 0.828125
vn 0 0 -1
vn 1 0 0
vn 0 0 1
vn -1 0 0
vn 0 1 0
vn 0 -1 0
usemtl m_d705bc15-3655-67f5-5943-974c5a7300bd
f 65/193/49 66/194/49 67/195/49 68/196/49
f 69/197/50 65/198/50 68/199/50 70/200/50
f 71/201/51 69/202/51 70/203/51 72/204/51
f 66/205/52 71/206/52 72/207/52 67/208/52
f 72/209/53 70/210/53 68/211/53 67/212/53
f 66/213/54 65/214/54 69/215/54 71/216/54
o cube
v 0.8125 7.25 -0.125
v 0.75 7.25 -0.125
v 0.75 7.5 -0.125
v 0.8125 7.5 -0.125
v 0.8125 7.25 0.125
v 0.8125 7.5 0.125
v 0.75 7.25 0.125
v 0.75 7.5 0.125
vt 0.1796875 0.7421875
vt 0.18359375 0.7421875
vt 0.18359375 0.7578125
vt 0.1796875 0.7578125
vt 0.1953125 0.859375
vt 0.2109375 0.859375
vt 0.2109375 0.875
vt 0.1953125 0.875
vt 0.18359375 0.7421875
vt 0.1875 0.7421875
vt 0.1875 0.7578125
vt 0.18359375 0.7578125
vt 0.1953125 0.84375
vt 0.2109375 0.84375
vt 0.2109375 0.859375
vt 0.1953125 0.859375
vt 0.23828125 0.7578125
vt 0.234375 0.7578125
vt 0.234375 0.7421875
vt 0.23828125 0.7421875
vt 0.24609375 0.75
vt 0.2421875 0.75
vt 0.2421875 0.765625
vt 0.24609375 0.765625
vn 0 0 -1
vn 1 0 0
vn 0 0 1
vn -1 0 0
vn 0 1 0
vn 0 -1 0
usemtl m_d705bc15-3655-67f5-5943-974c5a7300bd
f 73/217/55 74/218/55 75/219/55 76/220/55
f 77/221/56 73/222/56 76/223/56 78/224/56
f 79/225/57 77/226/57 78/227/57 80/228/57
f 74/229/58 79/230/58 80/231/58 75/232/58
f 80/233/59 78/234/59 76/235/59 75/236/59
f 74/237/60 73/238/60 77/239/60 79/240/60
o cube
v 0.9375 7.25 -0.125
v 0.875 7.25 -0.125
v 0.875 7.5 -0.125
v 0.9375 7.5 -0.125
v 0.9375 7.25 0.125
v 0.9375 7.5 0.125
v 0.875 7.25 0.125
v 0.875 7.5 0.125
vt 0.24609375 0.875
vt 0.25 0.875
vt 0.25 0.890625
vt 0.24609375 0.890625
vt 0.1953125 0.8125
vt 0.2109375 0.8125
vt 0.2109375 0.828125
vt 0.1953125 0.828125
vt 0.24609375 0.859375
vt 0.25 0.859375
vt 0.25 0.875
vt 0.24609375 0.875
vt 0.1953125 0.796875
vt 0.2109375 0.796875
vt 0.2109375 0.8125
vt 0.1953125 0.8125
vt 0.14453125 0.75390625
vt 0.140625 0.75390625
vt 0.140625 0.73828125
vt 0.14453125 0.73828125
vt 0.25 0.84375
vt 0.24609375 0.84375
vt 0.24609375 0.859375
vt 0.25 0.859375
vn 0 0 -1
vn 1 0 0
vn 0 0 1
vn -1 0 0
vn 0 1 0
vn 0 -1 0
usemtl m_d705bc15-3655-67f5-5943-974c5a7300bd
f 81/241/61 82/242/61 83/243/61 84/244/61
f 85/245/62 81/246/62 84/247/62 86/248/62
f 87/249/63 85/250/63 86/251/63 88/252/63
f 82/253/64 87/254/64 88/255/64 83/256/64
f 88/257/65 86/258/65 84/259/65 83/260/65
f 82/261/66 81/262/66 85/263/66 87/264/66
o cube
v 1.0625 7.25 -0.125
v 1 7.25 -0.125
v 1 7.5 -0.125
v 1.0625 7.5 -0.125
v 1.0625 7.25 0.125
v 1.0625 7.5 0.125
v 1 7.25 0.125
v 1 7.5 0.125
vt 0.14453125 0.73828125
vt 0.1484375 0.73828125
vt 0.1484375 0.75390625
vt 0.14453125 0.75390625
vt 0.140625 0.78125
vt 0.15625 0.78125
vt 0.15625 0.796875
vt 0.140625 0.796875
vt 0.15625 0.73828125
vt 0.16015625 0.73828125
vt 0.16015625 0.75390625
vt 0.15625 0.75390625
vt 0.15625 0.78125
vt 0.171875 0.78125
vt 0.171875 0.796875
vt 0.15625 0.796875
vt 0.25 0.84375
vt 0.24609375 0.84375
vt 0.24609375 0.828125
vt 0.25 0.828125
vt 0.1640625 0.73828125
vt 0.16015625 0.73828125
vt 0.16015625 0.75390625
vt 0.1640625 0.75390625
vn 0 0 -1
vn 1 0 0
vn 0 0 1
vn -1 0 0
vn 0 1 0
vn 0 -1 0
usemtl m_d705bc15-3655-67f5-5943-974c5a7300bd
f 89/265/67 90/266/67 91/267/67 92/268/67
f 93/269/68 89/270/68 92/271/68 94/272/68
f 95/273/69 93/274/69 94/275/69 96/276/69
f 90/277/70 95/278/70 96/279/70 91/280/70
f 96/281/71 94/282/71 92/283/71 91/284/71
f 90/285/72 89/286/72 93/287/72 95/288/72
o cube
v 3.6875 7.25 -0.0625
v 3.5 7.25 -0.0625
v 3.5 7.3125 -0.0625
v 3.6875 7.3125 -0.0625
v 3.6875 7.25 0.0625
v 3.6875 7.3125 0.0625
v 3.5 7.25 0.0625
v 3.5 7.3125 0.0625
vt 0.2578125 0.84765625
vt 0.26953125 0.84765625
vt 0.26953125 0.8515625
vt 0.2578125 0.8515625
vt 0.1875 0.84375
vt 0.1953125 0.84375
vt 0.1953125 0.84765625
vt 0.1875 0.84765625
vt 0.2578125 0.84375
vt 0.26953125 0.84375
vt 0.26953125 0.84765625
vt 0.2578125 0.84765625
vt 0.234375 0.8125
vt 0.2421875 0.8125
vt 0.2421875 0.81640625
vt 0.234375 0.81640625
vt 0.24609375 0.890625
vt 0.234375 0.890625
vt 0.234375 0.8828125
vt 0.24609375 0.8828125
vt 0.24609375 0.875
vt 0.234375 0.875
vt 0.234375 0.8828125
vt 0.24609375 0.8828125
vn 0 0 -1
vn 1 0 0
vn 0 0 1
vn -1 0 0
vn 0 1 0
vn 0 -1 0
usemtl m_d705bc15-3655-67f5-5943-974c5a7300bd
f 97/289/73 98/290/73 99/291/73 100/292/73
f 101/293/74 97/294/74 100/295/74 102/296/74
f 103/297/75 101/298/75 102/299/75 104/300/75
f 98/301/76 103/302/76 104/303/76 99/304/76
f 104/305/77 102/306/77 100/307/77 99/308/77
f 98/309/78 97/310/78 101/311/78 103/312/78
o cube
v 3.5624999879131845 7.250000157462818 -0.0625
v 0.4444065656875922 5.958443573230639 -0.0625
v 0.396571136641956 6.0739285147945505 -0.0625
v 3.514664558867549 7.365485099026728 -0.0625
v 3.5624999879131845 7.250000157462818 0.0625
v 3.514664558867549 7.365485099026728 0.0625
v 0.4444065656875922 5.958443573230639 0.0625
v 0.396571136641956 6.0739285147945505 0.0625
vt 0.140625 0.9296875
vt 0.3515625 0.9296875
vt 0.3515625 0.9375
vt 0.140625 0.9375
vt 0.24609375 0.8203125
vt 0.25390625 0.8203125
vt 0.25390625 0.828125
vt 0.24609375 0.828125
vt 0.140625 0.921875
vt 0.3515625 0.921875
vt 0.3515625 0.9296875
vt 0.140625 0.9296875
vt 0.24609375 0.8125
vt 0.25390625 0.8125
vt 0.25390625 0.8203125
vt 0.24609375 0.8203125
vt 0.3515625 0.921875
vt 0.140625 0.921875
vt 0.140625 0.9140625
vt 0.3515625 0.9140625
vt 0.3515625 0.90625
vt 0.140625 0.90625
vt 0.140625 0.9140625
vt 0.3515625 0.9140625
vn 0 0 -1
vn 0.9238795325112876 0.38268343236508784 0
vn 0 0 1
vn -0.9238795325112878 -0.3826834323650874 0
vn -0.38268343236508956 0.9238795325112868 0
vn 0.3826834323650901 -0.9238795325112867 0
usemtl m_d705bc15-3655-67f5-5943-974c5a7300bd
f 105/313/79 106/314/79 107/315/79 108/316/79
f 109/317/80 105/318/80 108/319/80 110/320/80
f 111/321/81 109/322/81 110/323/81 112/324/81
f 106/325/82 111/326/82 112/327/82 107/328/82
f 112/329/83 110/330/83 108/331/83 107/332/83
f 106/333/84 105/334/84 109/335/84 111/336/84
o cube
v 0.8147791049021424 6.044207389585592 -0.125
v 0.7570366341201871 6.020289675062774 -0.125
v 0.6613657760289147 6.251259558190595 -0.125
v 0.71910824681087 6.275177272713414 -0.125
v 0.8147791049021424 6.044207389585592 0.125
v 0.71910824681087 6.275177272713414 0.125
v 0.7570366341201871 6.020289675062774 0.125
v 0.6613657760289147 6.251259558190595 0.125
vt 0.24609375 0.78125
vt 0.25 0.78125
vt 0.25 0.796875
vt 0.24609375 0.796875
vt 0.1953125 0.78125
vt 0.2109375 0.78125
vt 0.2109375 0.796875
vt 0.1953125 0.796875
vt 0.24609375 0.765625
vt 0.25 0.765625
vt 0.25 0.78125
vt 0.24609375 0.78125
vt 0.2109375 0.875
vt 0.2265625 0.875
vt 0.2265625 0.890625
vt 0.2109375 0.890625
vt 0.25 0.765625
vt 0.24609375 0.765625
vt 0.24609375 0.75
vt 0.25 0.75
vt 0.25390625 0.875
vt 0.25 0.875
vt 0.25 0.890625
vt 0.25390625 0.890625
vn 0 0 -1
vn 0.9238795325112867 0.3826834323650899 0
vn 0 0 1
vn -0.9238795325112867 -0.3826834323650899 0
vn -0.3826834323650975 0.9238795325112836 0
vn 0.3826834323650975 -0.9238795325112836 0
usemtl m_d705bc15-3655-67f5-5943-974c5a7300bd
f 113/337/85 114/338/85 115/339/85 116/340/85
f 117/341/86 113/342/86 116/343/86 118/344/86
f 119/345/87 117/346/87 118/347/87 120/348/87
f 114/349/88 119/350/88 120/351/88 115/352/88
f 120/353/89 118/354/89 116/355/89 115/356/89
f 114/357/90 113/358/90 117/359/90 119/360/90
o cube
v 0.9302640464660532 6.092042818631228 -0.125
v 0.8725215756840978 6.068125104108411 -0.125
v 0.7768507175928254 6.2990949872362325 -0.125
v 0.8345931883747808 6.323012701759051 -0.125
v 0.9302640464660532 6.092042818631228 0.125
v 0.8345931883747808 6.323012701759051 0.125
v 0.8725215756840978 6.068125104108411 0.125
v 0.7768507175928254 6.2990949872362325 0.125
vt 0.25 0.859375
vt 0.25390625 0.859375
vt 0.25390625 0.875
vt 0.25 0.875
vt 0.2109375 0.859375
vt 0.2265625 0.859375
vt 0.2265625 0.875
vt 0.2109375 0.875
vt 0.25 0.84375
vt 0.25390625 0.84375
vt 0.25390625 0.859375
vt 0.25 0.859375
vt 0.2109375 0.84375
vt 0.2265625 0.84375
vt 0.2265625 0.859375
vt 0.2109375 0.859375
vt 0.25390625 0.84375
vt 0.25 0.84375
vt 0.25 0.828125
vt 0.25390625 0.828125
vt 0.19140625 0.734375
vt 0.1875 0.734375
vt 0.1875 0.75
vt 0.19140625 0.75
vn 0 0 -1
vn 0.9238795325112878 0.3826834323650874 0
vn 0 0 1
vn -0.9238795325112867 -0.3826834323650899 0
vn -0.3826834323650975 0.9238795325112836 0
vn 0.38268343236507324 -0.9238795325112936 0
usemtl m_d705bc15-3655-67f5-5943-974c5a7300bd
f 121/361/91 122/362/91 123/363/91 124/364/91
f 125/365/92 121/366/92 124/367/92 126/368/92
f 127/369/93 125/370/93 126/371/93 128/372/93
f 122/373/94 127/374/94 128/375/94 123/376/94
f 128/377/95 126/378/95 124/379/95 123/380/95
f 122/381/96 121/382/96 125/383/96 127/384/96
o cube
v 1.1612339295938754 6.187713676722501 -0.125
v 1.1034914588119196 6.163795962199682 -0.125
v 1.0078206007206474 6.394765845327505 -0.125
v 1.0655630715026028 6.418683559850322 -0.125
v 1.1612339295938754 6.187713676722501 0.125
v 1.0655630715026028 6.418683559850322 0.125
v 1.1034914588119196 6.163795962199682 0.125
v 1.0078206007206474 6.394765845327505 0.125
vt 0.19140625 0.734375
vt 0.1953125 0.734375
vt 0.1953125 0.75
vt 0.19140625 0.75
vt 0.2109375 0.8125
vt 0.2265625 0.8125
vt 0.2265625 0.828125
vt 0.2109375 0.828125
vt 0.25 0.78125
vt 0.25390625 0.78125
vt 0.25390625 0.796875
vt 0.25 0.796875
vt 0.2109375 0.796875
vt 0.2265625 0.796875
vt 0.2265625 0.8125
vt 0.2109375 0.8125
vt 0.25390625 0.78125
vt 0.25 0.78125
vt 0.25 0.765625
vt 0.25390625 0.765625
vt 0.25390625 0.75
vt 0.25 0.75
vt 0.25 0.765625
vt 0.25390625 0.765625
vn 0 0 -1
vn 0.9238795325112864 0.3826834323650906 0
vn 0 0 1
vn -0.9238795325112881 -0.3826834323650866 0
vn -0.38268343236507324 0.9238795325112936 0
vn 0.382683432365095 -0.9238795325112847 0
usemtl m_d705bc15-3655-67f5-5943-974c5a7300bd
f 129/385/97 130/386/97 131/387/97 132/388/97
f 133/389/98 129/390/98 132/391/98 134/392/98
f 135/393/99 133/394/99 134/395/99 136/396/99
f 130/397/100 135/398/100 136/399/100 131/400/100
f 136/401/101 134/402/101 132/403/101 131/404/101
f 130/405/102 129/406/102 133/407/102 135/408/102
o cube
v 1.045748988029964 6.139878247676865 -0.125
v 0.9880065172480086 6.1159605331540465 -0.125
v 0.8923356591567362 6.346930416281868 -0.125
v 0.9500781299386916 6.370848130804687 -0.125
v 1.045748988029964 6.139878247676865 0.125
v 0.9500781299386916 6.370848130804687 0.125
v 0.9880065172480086 6.1159605331540465 0.125
v 0.8923356591567362 6.346930416281868 0.125
vt 0.23828125 0.734375
vt 0.2421875 0.734375
vt 0.2421875 0.75
vt 0.23828125 0.75
vt 0.2109375 0.78125
vt 0.2265625 0.78125
vt 0.2265625 0.796875
vt 0.2109375 0.796875
vt 0.2421875 0.734375
vt 0.24609375 0.734375
vt 0.24609375 0.75
vt 0.2421875 0.75
vt 0.171875 0.76953125
vt 0.1875 0.76953125
vt 0.1875 0.78515625
vt 0.171875 0.78515625
vt 0.25 0.75
vt 0.24609375 0.75
vt 0.24609375 0.734375
vt 0.25 0.734375
vt 0.25390625 0.734375
vt 0.25 0.734375
vt 0.25 0.75
vt 0.25390625 0.75
vn 0 0 -1
vn 0.9238795325112867 0.3826834323650899 0
vn 0 0 1
vn -0.9238795325112867 -0.3826834323650899 0
vn -0.3826834323650975 0.9238795325112836 0
vn 0.3826834323650975 -0.9238795325112836 0
usemtl m_d705bc15-3655-67f5-5943-974c5a7300bd
f 137/409/103 138/410/103 139/411/103 140/412/103
f 141/413/104 137/414/104 140/415/104 142/416/104
f 143/417/105 141/418/105 142/419/105 144/420/105
f 138/421/106 143/422/106 144/423/106 139/424/106
f 144/425/107 142/426/107 140/427/107 139/428/107
f 138/429/108 137/430/108 141/431/108 143/432/108
o cube
v 1.1612339295938754 6.187713676722501 -0.125
v 1.1034914588119196 6.163795962199682 -0.125
v 1.0078206007206474 6.394765845327505 -0.125
v 1.0655630715026028 6.418683559850322 -0.125
v 1.1612339295938754 6.187713676722501 0.125
v 1.0655630715026028 6.418683559850322 0.125
v 1.1034914588119196 6.163795962199682 0.125
v 1.0078206007206474 6.394765845327505 0.125
vt 0.25390625 0.875
vt 0.2578125 0.875
vt 0.2578125 0.890625
vt 0.25390625 0.890625
vt 0.140625 0.765625
vt 0.15625 0.765625
vt 0.15625 0.78125
vt 0.140625 0.78125
vt 0.25390625 0.859375
vt 0.2578125 0.859375
vt 0.2578125 0.875
vt 0.25390625 0.875
vt 0.15625 0.765625
vt 0.171875 0.765625
vt 0.171875 0.78125
vt 0.15625 0.78125
vt 0.2578125 0.859375
vt 0.25390625 0.859375
vt 0.25390625 0.84375
vt 0.2578125 0.84375
vt 0.2578125 0.828125
vt 0.25390625 0.828125
vt 0.25390625 0.84375
vt 0.2578125 0.84375
vn 0 0 -1
vn 0.9238795325112864 0.3826834323650906 0
vn 0 0 1
vn -0.9238795325112881 -0.3826834323650866 0
vn -0.38268343236507324 0.9238795325112936 0
vn 0.382683432365095 -0.9238795325112847 0
usemtl m_d705bc15-3655-67f5-5943-974c5a7300bd
f 145/433/109 146/434/109 147/435/109 148/436/109
f 149/437/110 145/438/110 148/439/110 150/440/110
f 151/441/111 149/442/111 150/443/111 152/444/111
f 146/445/112 151/446/112 152/447/112 147/448/112
f 152/449/113 150/450/113 148/451/113 147/452/113
f 146/453/114 145/454/114 149/455/114 151/456/114
o cube
v 5.8125 6.4375 -0.0625
v 2.0625 6.4375 -0.0625
v 2.0625 6.5625 -0.0625
v 5.8125 6.5625 -0.0625
v 5.8125 6.4375 0.0625
v 5.8125 6.5625 0.0625
v 2.0625 6.4375 0.0625
v 2.0625 6.5625 0.0625
vt 0.140625 0.9609375
vt 0.375 0.9609375
vt 0.375 0.96875
vt 0.140625 0.96875
vt 0.1640625 0.73828125
vt 0.171875 0.73828125
vt 0.171875 0.74609375
vt 0.1640625 0.74609375
vt 0.140625 0.953125
vt 0.375 0.953125
vt 0.375 0.9609375
vt 0.140625 0.9609375
vt 0.171875 0.73828125
vt 0.1796875 0.73828125
vt 0.1796875 0.74609375
vt 0.171875 0.74609375
vt 0.375 0.953125
vt 0.140625 0.953125
vt 0.140625 0.9453125
vt 0.375 0.9453125
vt 0.375 0.9375
vt 0.140625 0.9375
vt 0.140625 0.9453125
vt 0.375 0.9453125
vn 0 0 -1
vn 1 0 0
vn 0 0 1
vn -1 0 0
vn 0 1 0
vn 0 -1 0
usemtl m_d705bc15-3655-67f5-5943-974c5a7300bd
f 153/457/115 154/458/115 155/459/115 156/460/115
f 157/461/116 153/462/116 156/463/116 158/464/116
f 159/465/117 157/466/117 158/467/117 160/468/117
f 154/469/118 159/470/118 160/471/118 155/472/118
f 160/473/119 158/474/119 156/475/119 155/476/119
f 154/477/120 153/478/120 157/479/120 159/480/120
o cube
v 5.0625 6.5 -0.0625
v 5 6.5 -0.0625
v 5 6.625 -0.0625
v 5.0625 6.625 -0.0625
v 5.0625 6.5 0
v 5.0625 6.625 0
v 5 6.5 0
v 5 6.625 0
vt 0.14453125 0.73046875
vt 0.1484375 0.73046875
vt 0.1484375 0.73828125
vt 0.14453125 0.73828125
vt 0.15625 0.73046875
vt 0.16015625 0.73046875
vt 0.16015625 0.73828125
vt 0.15625 0.73828125
vt 0.16015625 0.73046875
vt 0.1640625 0.73046875
vt 0.1640625 0.73828125
vt 0.16015625 0.73828125
vt 0.1640625 0.73046875
vt 0.16796875 0.73046875
vt 0.16796875 0.73828125
vt 0.1640625 0.73828125
vt 0.26953125 0.8203125
vt 0.265625 0.8203125
vt 0.265625 0.81640625
vt 0.26953125 0.81640625
vt 0.26953125 0.8125
vt 0.265625 0.8125
vt 0.265625 0.81640625
vt 0.26953125 0.81640625
vn 0 0 -1
vn 1 0 0
vn 0 0 1
vn -1 0 0
vn 0 1 0
vn 0 -1 0
usemtl m_d705bc15-3655-67f5-5943-974c5a7300bd
f 161/481/121 162/482/121 163/483/121 164/484/121
f 165/485/122 161/486/122 164/487/122 166/488/122
f 167/489/123 165/490/123 166/491/123 168/492/123
f 162/493/124 167/494/124 168/495/124 163/496/124
f 168/497/125 166/498/125 164/499/125 163/500/125
f 162/501/126 161/502/126 165/503/126 167/504/126
o cube
v 5.062499914682904 6.624999702730342 0
v 5.0289186891612285 6.572287737367037 0
v 3.9746793818951214 7.243912247800567 0
v 4.008260607416798 7.296624213163872 0
v 5.062499914682904 6.624999702730342 0
v 4.008260607416798 7.296624213163872 0
v 5.0289186891612285 6.572287737367037 0
v 3.9746793818951214 7.243912247800567 0
vt 0.1875 0.75
vt 0.19140625 0.75
vt 0.19140625 0.828125
vt 0.1875 0.828125
vt 0 0.921875
vt 0 0.921875
vt 0 1
vt 0 1
vt 0.19140625 0.75
vt 0.1953125 0.75
vt 0.1953125 0.828125
vt 0.19140625 0.828125
vt 0 0.921875
vt 0 0.921875
vt 0 1
vt 0 1
vt 0.00390625 1
vt 0 1
vt 0 1
vt 0.00390625 1
vt 0.00390625 1
vt 0 1
vt 0 1
vt 0.00390625 1
vn 0 0 -1
vn 0 0 0
vn 0 0 1
vn 0 0 0
vn 0 0 0
vn 0 0 0
usemtl m_d705bc15-3655-67f5-5943-974c5a7300bd
f 169/505/127 170/506/127 171/507/127 172/508/127
f 173/509/128 169/510/128 172/511/128 174/512/128
f 175/513/129 173/514/129 174/515/129 176/516/129
f 170/517/130 175/518/130 176/519/130 171/520/130
f 176/521/131 174/522/131 172/523/131 171/524/131
f 170/525/132 169/526/132 173/527/132 175/528/132
o cube
v 5.0625 6.5 0
v 5 6.5 0
v 5 6.625 0
v 5.0625 6.625 0
v 5.0625 6.5 0.0625
v 5.0625 6.625 0.0625
v 5 6.5 0.0625
v 5 6.625 0.0625
vt 0.26171875 0.828125
vt 0.265625 0.828125
vt 0.265625 0.8359375
vt 0.26171875 0.8359375
vt 0.16796875 0.73046875
vt 0.171875 0.73046875
vt 0.171875 0.73828125
vt 0.16796875 0.73828125
vt 0.171875 0.73046875
vt 0.17578125 0.73046875
vt 0.17578125 0.73828125
vt 0.171875 0.73828125
vt 0.26171875 0.8203125
vt 0.265625 0.8203125
vt 0.265625 0.828125
vt 0.26171875 0.828125
vt 0.19140625 0.734375
vt 0.1875 0.734375
vt 0.1875 0.73046875
vt 0.19140625 0.73046875
vt 0.26953125 0.80859375
vt 0.265625 0.80859375
vt 0.265625 0.8125
vt 0.26953125 0.8125
vn 0 0 -1
vn 1 0 0
vn 0 0 1
vn -1 0 0
vn 0 1 0
vn 0 -1 0
usemtl m_d705bc15-3655-67f5-5943-974c5a7300bd
f 177/529/133 178/530/133 179/531/133 180/532/133
f 181/533/134 177/534/134 180/535/134 182/536/134
f 183/537/135 181/538/135 182/539/135 184/540/135
f 178/541/136 183/542/136 184/543/136 179/544/136
f 184/545/137 182/546/137 180/547/137 179/548/137
f 178/549/138 177/550/138 181/551/138 183/552/138
o cube
v 3.75 7.25 -0.0625
v 3.5625 7.25 -0.0625
v 3.5625 7.3125 -0.0625
v 3.75 7.3125 -0.0625
v 3.75 7.25 0.0625
v 3.75 7.3125 0.0625
v 3.5625 7.25 0.0625
v 3.5625 7.3125 0.0625
vt 0.2578125 0.83984375
vt 0.26953125 0.83984375
vt 0.26953125 0.84375
vt 0.2578125 0.84375
vt 0.2578125 0.796875
vt 0.265625 0.796875
vt 0.265625 0.80078125
vt 0.2578125 0.80078125
vt 0.2578125 0.8359375
vt 0.26953125 0.8359375
vt 0.26953125 0.83984375
vt 0.2578125 0.83984375
vt 0.2578125 0.7734375
vt 0.265625 0.7734375
vt 0.265625 0.77734375
vt 0.2578125 0.77734375
vt 0.24609375 0.875
vt 0.234375 0.875
vt 0.234375 0.8671875
vt 0.24609375 0.8671875
vt 0.24609375 0.859375
vt 0.234375 0.859375
vt 0.234375 0.8671875
vt 0.24609375 0.8671875
vn 0 0 -1
vn 1 0 0
vn 0 0 1
vn -1 0 0
vn 0 1 0
vn 0 -1 0
usemtl m_d705bc15-3655-67f5-5943-974c5a7300bd
f 185/553/139 186/554/139 187/555/139 188/556/139
f 189/557/140 185/558/140 188/559/140 190/560/140
f 191/561/141 189/562/141 190/563/141 192/564/141
f 186/565/142 191/566/142 192/567/142 187/568/142
f 192/569/143 190/570/143 188/571/143 187/572/143
f 186/573/144 185/574/144 189/575/144 191/576/144
o cube
v 4.037179375 7.2439125 0.00006249999999999312
v 3.974679375 7.2439125 0.00006249999999999312
v 3.974679375 7.3689125 0.00006249999999999312
v 4.037179375 7.3689125 0.00006249999999999312
v 4.037179375 7.2439125 0.0625625
v 4.037179375 7.3689125 0.0625625
v 3.974679375 7.2439125 0.0625625
v 3.974679375 7.3689125 0.0625625
vt 0.17578125 0.73046875
vt 0.1796875 0.73046875
vt 0.1796875 0.73828125
vt 0.17578125 0.73828125
vt 0.26171875 0.8125
vt 0.265625 0.8125
vt 0.265625 0.8203125
vt 0.26171875 0.8203125
vt 0.26171875 0.8046875
vt 0.265625 0.8046875
vt 0.265625 0.8125
vt 0.26171875 0.8125
vt 0.26171875 0.7890625
vt 0.265625 0.7890625
vt 0.265625 0.796875
vt 0.26171875 0.796875
vt 0.1953125 0.734375
vt 0.19140625 0.734375
vt 0.19140625 0.73046875
vt 0.1953125 0.73046875
vt 0.26953125 0.8046875
vt 0.265625 0.8046875
vt 0.265625 0.80859375
vt 0.26953125 0.80859375
vn 0 0 -1
vn 1 0 0
vn 0 0 1
vn -1 0 0
vn 0 1 0
vn 0 -1 0
usemtl m_d705bc15-3655-67f5-5943-974c5a7300bd
f 193/577/145 194/578/145 195/579/145 196/580/145
f 197/581/146 193/582/146 196/583/146 198/584/146
f 199/585/147 197/586/147 198/587/147 200/588/147
f 194/589/148 199/590/148 200/591/148 195/592/148
f 200/593/149 198/594/149 196/595/149 195/596/149
f 194/597/150 193/598/150 197/599/150 199/600/150
o cube
v 4.037179375 7.2439125 -0.0625
v 3.974679375 7.2439125 -0.0625
v 3.974679375 7.3689125 -0.0625
v 4.037179375 7.3689125 -0.0625
v 4.037179375 7.2439125 0
v 4.037179375 7.3689125 0
v 3.974679375 7.2439125 0
v 3.974679375 7.3689125 0
vt 0.2578125 0.828125
vt 0.26171875 0.828125
vt 0.26171875 0.8359375
vt 0.2578125 0.8359375
vt 0.2578125 0.81640625
vt 0.26171875 0.81640625
vt 0.26171875 0.82421875
vt 0.2578125 0.82421875
vt 0.1796875 0.734375
vt 0.18359375 0.734375
vt 0.18359375 0.7421875
vt 0.1796875 0.7421875
vt 0.18359375 0.734375
vt 0.1875 0.734375
vt 0.1875 0.7421875
vt 0.18359375 0.7421875
vt 0.26953125 0.80078125
vt 0.265625 0.80078125
vt 0.265625 0.796875
vt 0.26953125 0.796875
vt 0.26953125 0.79296875
vt 0.265625 0.79296875
vt 0.265625 0.796875
vt 0.26953125 0.796875
vn 0 0 -1
vn 1 0 0
vn 0 0 1
vn -1 0 0
vn 0 1 0
vn 0 -1 0
usemtl m_d705bc15-3655-67f5-5943-974c5a7300bd
f 201/601/151 202/602/151 203/603/151 204/604/151
f 205/605/152 201/606/152 204/607/152 206/608/152
f 207/609/153 205/610/153 206/611/153 208/612/153
f 202/613/154 207/614/154 208/615/154 203/616/154
f 208/617/155 206/618/155 204/619/155 203/620/155
f 202/621/156 201/622/156 205/623/156 207/624/156
o cube
v 5.3125 6.25 -0.0625
v 5.25 6.25 -0.0625
v 5.25 6.4375 -0.0625
v 5.3125 6.4375 -0.0625
v 5.3125 6.25 0.0625
v 5.3125 6.4375 0.0625
v 5.25 6.25 0.0625
v 5.25 6.4375 0.0625
vt 0.2578125 0.80078125
vt 0.26171875 0.80078125
vt 0.26171875 0.8125
vt 0.2578125 0.8125
vt 0.171875 0.78515625
vt 0.1796875 0.78515625
vt 0.1796875 0.796875
vt 0.171875 0.796875
vt 0.2578125 0.77734375
vt 0.26171875 0.77734375
vt 0.26171875 0.7890625
vt 0.2578125 0.7890625
vt 0.1796875 0.7578125
vt 0.1875 0.7578125
vt 0.1875 0.76953125
vt 0.1796875 0.76953125
vt 0.2109375 0.73828125
vt 0.20703125 0.73828125
vt 0.20703125 0.73046875
vt 0.2109375 0.73046875
vt 0.21484375 0.73046875
vt 0.2109375 0.73046875
vt 0.2109375 0.73828125
vt 0.21484375 0.73828125
vn 0 0 -1
vn 1 0 0
vn 0 0 1
vn -1 0 0
vn 0 1 0
vn 0 -1 0
usemtl m_d705bc15-3655-67f5-5943-974c5a7300bd
f 209/625/157 210/626/157 211/627/157 212/628/157
f 213/629/158 209/630/158 212/631/158 214/632/158
f 215/633/159 213/634/159 214/635/159 216/636/159
f 210/637/160 215/638/160 216/639/160 211/640/160
f 216/641/161 214/642/161 212/643/161 211/644/161
f 210/645/162 209/646/162 213/647/162 215/648/162
o cube
v 5.3125 6.25 0
v 5.25 6.25 0
v 5.25 6.3125 0
v 5.3125 6.3125 0
v 5.3125 6.25 0.0625
v 5.3125 6.3125 0.0625
v 5.25 6.25 0.0625
v 5.25 6.3125 0.0625
vt 0.265625 0.7890625
vt 0.26953125 0.7890625
vt 0.26953125 0.79296875
vt 0.265625 0.79296875
vt 0.265625 0.78515625
vt 0.26953125 0.78515625
vt 0.26953125 0.7890625
vt 0.265625 0.7890625
vt 0.265625 0.78125
vt 0.26953125 0.78125
vt 0.26953125 0.78515625
vt 0.265625 0.78515625
vt 0.265625 0.7734375
vt 0.26953125 0.7734375
vt 0.26953125 0.77734375
vt 0.265625 0.77734375
vt 0.26953125 0.7734375
vt 0.265625 0.7734375
vt 0.265625 0.76953125
vt 0.26953125 0.76953125
vt 0.26953125 0.765625
vt 0.265625 0.765625
vt 0.265625 0.76953125
vt 0.26953125 0.76953125
vn 0 0 -1
vn 1 0 0
vn 0 0 1
vn -1 0 0
vn 0 1 0
vn 0 -1 0
usemtl m_d705bc15-3655-67f5-5943-974c5a7300bd
f 217/649/163 218/650/163 219/651/163 220/652/163
f 221/653/164 217/654/164 220/655/164 222/656/164
f 223/657/165 221/658/165 222/659/165 224/660/165
f 218/661/166 223/662/166 224/663/166 219/664/166
f 224/665/167 222/666/167 220/667/167 219/668/167
f 218/669/168 217/670/168 221/671/168 223/672/168
o cube
v 5.268793862638336 6.309607602500165 -0.0625
v 5.249999750169319 6.250000293078401 -0.0625
v 5.011570512482262 6.3251767429544685 -0.0625
v 5.030364624951279 6.384784052376233 -0.0625
v 5.268793862638336 6.309607602500165 0.0625
v 5.030364624951279 6.384784052376233 0.0625
v 5.249999750169319 6.250000293078401 0.0625
v 5.011570512482262 6.3251767429544685 0.0625
vt 0.25390625 0.8125
vt 0.2578125 0.8125
vt 0.2578125 0.828125
vt 0.25390625 0.828125
vt 0.2265625 0.875
vt 0.234375 0.875
vt 0.234375 0.890625
vt 0.2265625 0.890625
vt 0.1953125 0.73046875
vt 0.19921875 0.73046875
vt 0.19921875 0.74609375
vt 0.1953125 0.74609375
vt 0.2265625 0.859375
vt 0.234375 0.859375
vt 0.234375 0.875
vt 0.2265625 0.875
vt 0.265625 0.7890625
vt 0.26171875 0.7890625
vt 0.26171875 0.78125
vt 0.265625 0.78125
vt 0.22265625 0.73046875
vt 0.21875 0.73046875
vt 0.21875 0.73828125
vt 0.22265625 0.73828125
vn 0 0 -1
vn 0.3007057995042707 0.9537169507482278 0
vn 0 0 1
vn -0.3007057995042707 -0.9537169507482278 0
vn -0.9537169507482278 0.3007057995042707 0
vn 0.9537169507482278 -0.3007057995042707 0
usemtl m_d705bc15-3655-67f5-5943-974c5a7300bd
f 225/673/169 226/674/169 227/675/169 228/676/169
f 229/677/170 225/678/170 228/679/170 230/680/170
f 231/681/171 229/682/171 230/683/171 232/684/171
f 226/685/172 231/686/172 232/687/172 227/688/172
f 232/689/173 230/690/173 228/691/173 227/692/173
f 226/693/174 225/694/174 229/695/174 231/696/174
o cube
v 5.030364616129214 6.384784027294596 -0.0625
v 5.02763840441888 6.3223435134457295 -0.0625
v 4.7778763490234155 6.3332483602870635 -0.0625
v 4.780602560733749 6.39568887413593 -0.0625
v 5.030364616129214 6.384784027294596 0.0625
v 4.780602560733749 6.39568887413593 0.0625
v 5.02763840441888 6.3223435134457295 0.0625
v 4.7778763490234155 6.3332483602870635 0.0625
vt 0.19921875 0.73046875
vt 0.203125 0.73046875
vt 0.203125 0.74609375
vt 0.19921875 0.74609375
vt 0.2265625 0.84375
vt 0.234375 0.84375
vt 0.234375 0.859375
vt 0.2265625 0.859375
vt 0.203125 0.73046875
vt 0.20703125 0.73046875
vt 0.20703125 0.74609375
vt 0.203125 0.74609375
vt 0.2265625 0.8125
vt 0.234375 0.8125
vt 0.234375 0.828125
vt 0.2265625 0.828125
vt 0.2265625 0.73828125
vt 0.22265625 0.73828125
vt 0.22265625 0.73046875
vt 0.2265625 0.73046875
vt 0.23046875 0.73046875
vt 0.2265625 0.73046875
vt 0.2265625 0.73828125
vt 0.23046875 0.73828125
vn 0 0 -1
vn 0.04361938736533584 0.9990482215818579 0
vn 0 0 1
vn -0.04361938736533584 -0.9990482215818579 0
vn -0.9990482215818577 0.043619387365339386 0
vn 0.9990482215818577 -0.043619387365339386 0
usemtl m_d705bc15-3655-67f5-5943-974c5a7300bd
f 233/697/175 234/698/175 235/699/175 236/700/175
f 237/701/176 233/702/176 236/703/176 238/704/176
f 239/705/177 237/706/177 238/707/177 240/708/177
f 234/709/178 239/710/178 240/711/178 235/712/178
f 240/713/179 238/714/179 236/715/179 235/716/179
f 234/717/180 233/718/180 237/719/180 239/720/180
o cube
v 4.780602972626631 6.395688894439684 -0.0625
v 4.788760859640384 6.333723590603821 -0.0625
v 4.602864948132794 6.3092499295625615 -0.0625
v 4.594707061119041 6.371215233398424 -0.0625
v 4.780602972626631 6.395688894439684 0.0625
v 4.594707061119041 6.371215233398424 0.0625
v 4.788760859640384 6.333723590603821 0.0625
v 4.602864948132794 6.3092499295625615 0.0625
vt 0.234375 0.73046875
vt 0.23828125 0.73046875
vt 0.23828125 0.7421875
vt 0.234375 0.7421875
vt 0.140625 0.75390625
vt 0.1484375 0.75390625
vt 0.1484375 0.765625
vt 0.140625 0.765625
vt 0.2578125 0.73828125
vt 0.26171875 0.73828125
vt 0.26171875 0.75
vt 0.2578125 0.75
vt 0.234375 0.84765625
vt 0.2421875 0.84765625
vt 0.2421875 0.859375
vt 0.234375 0.859375
vt 0.265625 0.7734375
vt 0.26171875 0.7734375
vt 0.26171875 0.765625
vt 0.265625 0.765625
vt 0.234375 0.73046875
vt 0.23046875 0.73046875
vt 0.23046875 0.73828125
vt 0.234375 0.73828125
vn 0 0 -1
vn -0.13052619222005035 0.9914448613738107 0
vn 0 0 1
vn 0.13052619222005035 -0.9914448613738107 0
vn -0.9914448613738112 -0.1305261922200463 0
vn 0.9914448613738112 0.1305261922200463 0
usemtl m_d705bc15-3655-67f5-5943-974c5a7300bd
f 241/721/181 242/722/181 243/723/181 244/724/181
f 245/725/182 241/726/182 244/727/182 246/728/182
f 247/729/183 245/730/183 246/731/183 248/732/183
f 242/733/184 247/734/184 248/735/184 243/736/184
f 248/737/185 246/738/185 244/739/185 243/740/185
f 242/741/186 241/742/186 245/743/186 247/744/186
o cube
v 4.594707012679216 6.371214724234232 -0.0625
v 4.616083271637071 6.312483935435112 -0.0625
v 3.9700445948467586 6.077345086898715 -0.0625
v 3.9486683358889043 6.136075875697835 -0.0625
v 4.594707012679216 6.371214724234232 0.0625
v 3.9486683358889043 6.136075875697835 0.0625
v 4.616083271637071 6.312483935435112 0.0625
v 3.9700445948467586 6.077345086898715 0.0625
vt 0.21875 0.73828125
vt 0.22265625 0.73828125
vt 0.22265625 0.78125
vt 0.21875 0.78125
vt 0.1796875 0.78515625
vt 0.1875 0.78515625
vt 0.1875 0.828125
vt 0.1796875 0.828125
vt 0.22265625 0.73828125
vt 0.2265625 0.73828125
vt 0.2265625 0.78125
vt 0.22265625 0.78125
vt 0.1875 0.84765625
vt 0.1953125 0.84765625
vt 0.1953125 0.890625
vt 0.1875 0.890625
vt 0.265625 0.765625
vt 0.26171875 0.765625
vt 0.26171875 0.7578125
vt 0.265625 0.7578125
vt 0.265625 0.75
vt 0.26171875 0.75
vt 0.26171875 0.7578125
vt 0.265625 0.7578125
vn 0 0 -1
vn -0.3420201433256681 0.9396926207859088 0
vn 0 0 1
vn 0.3420201433256681 -0.9396926207859088 0
vn -0.9396926207859095 -0.34202014332566566 0
vn 0.9396926207859095 0.34202014332566566 0
usemtl m_d705bc15-3655-67f5-5943-974c5a7300bd
f 249/745/187 250/746/187 251/747/187 252/748/187
f 253/749/188 249/750/188 252/751/188 254/752/188
f 255/753/189 253/754/189 254/755/189 256/756/189
f 250/757/190 255/758/190 256/759/190 251/760/190
f 256/761/191 254/762/191 252/763/191 251/764/191
f 250/765/192 249/766/192 253/767/192 255/768/192
o cube
v 4.011168125 6.01107625 -0.0625
v 3.948668125 6.01107625 -0.0625
v 3.948668125 6.13607625 -0.0625
v 4.011168125 6.13607625 -0.0625
v 4.011168125 6.01107625 0.0625
v 4.011168125 6.13607625 0.0625
v 3.948668125 6.01107625 0.0625
v 3.948668125 6.13607625 0.0625
vt 0.26171875 0.7421875
vt 0.265625 0.7421875
vt 0.265625 0.75
vt 0.26171875 0.75
vt 0.25390625 0.7890625
vt 0.26171875 0.7890625
vt 0.26171875 0.796875
vt 0.25390625 0.796875
vt 0.2578125 0.73046875
vt 0.26171875 0.73046875
vt 0.26171875 0.73828125
vt 0.2578125 0.73828125
vt 0.20703125 0.73828125
vt 0.21484375 0.73828125
vt 0.21484375 0.74609375
vt 0.20703125 0.74609375
vt 0.265625 0.7421875
vt 0.26171875 0.7421875
vt 0.26171875 0.734375
vt 0.265625 0.734375
vt 0.26953125 0.8984375
vt 0.265625 0.8984375
vt 0.265625 0.90625
vt 0.26953125 0.90625
vn 0 0 -1
vn 1 0 0
vn 0 0 1
vn -1 0 0
vn 0 1 0
vn 0 -1 0
usemtl m_d705bc15-3655-67f5-5943-974c5a7300bd
f 257/769/193 258/770/193 259/771/193 260/772/193
f 261/773/194 257/774/194 260/775/194 262/776/194
f 263/777/195 261/778/195 262/779/195 264/780/195
f 258/781/196 263/782/196 264/783/196 259/784/196
f 264/785/197 262/786/197 260/787/197 259/788/197
f 258/789/198 257/790/198 261/791/198 263/792/198
o cube
v 0.25 0 -0.25
v -0.25 0 -0.25
v -0.25 0.0625 -0.25
v 0.25 0.0625 -0.25
v 0.25 0 0.25
v 0.25 0.0625 0.25
v -0.25 0 0.25
v -0.25 0.0625 0.25
vt 0.2265625 0.80859375
vt 0.2578125 0.80859375
vt 0.2578125 0.8125
vt 0.2265625 0.8125
vt 0.2265625 0.8046875
vt 0.2578125 0.8046875
vt 0.2578125 0.80859375
vt 0.2265625 0.80859375
vt 0.2265625 0.80078125
vt 0.2578125 0.80078125
vt 0.2578125 0.8046875
vt 0.2265625 0.8046875
vt 0.2265625 0.796875
vt 0.2578125 0.796875
vt 0.2578125 0.80078125
vt 0.2265625 0.80078125
vt 0.171875 0.90625
vt 0.140625 0.90625
vt 0.140625 0.875
vt 0.171875 0.875
vt 0.171875 0.84375
vt 0.140625 0.84375
vt 0.140625 0.875
vt 0.171875 0.875
vn 0 0 -1
vn 1 0 0
vn 0 0 1
vn -1 0 0
vn 0 1 0
vn 0 -1 0
usemtl m_d705bc15-3655-67f5-5943-974c5a7300bd
f 265/793/199 266/794/199 267/795/199 268/796/199
f 269/797/200 265/798/200 268/799/200 270/800/200
f 271/801/201 269/802/201 270/803/201 272/804/201
f 266/805/202 271/806/202 272/807/202 267/808/202
f 272/809/203 270/810/203 268/811/203 267/812/203
f 266/813/204 265/814/204 269/815/204 271/816/204
o cube
v -0.0625 1.5625 -0.1875
v -0.125 1.5625 -0.1875
v -0.125 8.375 -0.1875
v -0.0625 8.375 -0.1875
v -0.0625 1.5625 0.1875
v -0.0625 8.375 0.1875
v -0.125 1.5625 0.1875
v -0.125 8.375 0.1875
vt 0.1328125 0.484375
vt 0.13671875 0.484375
vt 0.13671875 0.91015625
vt 0.1328125 0.91015625
vt 0.046875 0.515625
vt 0.0703125 0.515625
vt 0.0703125 0.94140625
vt 0.046875 0.94140625
vt 0.13671875 0.484375
vt 0.140625 0.484375
vt 0.140625 0.91015625
vt 0.13671875 0.91015625
vt 0.0703125 0.515625
vt 0.09375 0.515625
vt 0.09375 0.94140625
vt 0.0703125 0.94140625
vt 0.15234375 0.765625
vt 0.1484375 0.765625
vt 0.1484375 0.7421875
vt 0.15234375 0.7421875
vt 0.15625 0.7421875
vt 0.15234375 0.7421875
vt 0.15234375 0.765625
vt 0.15625 0.765625
vn 0 0 -1
vn 1 0 0
vn 0 0 1
vn -1 0 0
vn 0 1 0
vn 0 -1 0
usemtl m_d705bc15-3655-67f5-5943-974c5a7300bd
f 273/817/205 274/818/205 275/819/205 276/820/205
f 277/821/206 273/822/206 276/823/206 278/824/206
f 279/825/207 277/826/207 278/827/207 280/828/207
f 274/829/208 279/830/208 280/831/208 275/832/208
f 280/833/209 278/834/209 276/835/209 275/836/209
f 274/837/210 273/838/210 277/839/210 279/840/210
o cube
v 0.0625 2.875 -0.0625
v -0.0625 2.875 -0.0625
v -0.0625 8 -0.0625
v 0.0625 8 -0.0625
v 0.0625 2.875 0.0625
v 0.0625 8 0.0625
v -0.0625 2.875 0.0625
v -0.0625 8 0.0625
vt 0.09375 0.515625
vt 0.1015625 0.515625
vt 0.1015625 1
vt 0.09375 1
vt 0.1015625 0.515625
vt 0.109375 0.515625
vt 0.109375 1
vt 0.1015625 1
vt 0.109375 0.515625
vt 0.1171875 0.515625
vt 0.1171875 1
vt 0.109375 1
vt 0.1171875 0.515625
vt 0.125 0.515625
vt 0.125 1
vt 0.1171875 1
vt 0.26171875 0.765625
vt 0.25390625 0.765625
vt 0.25390625 0.7578125
vt 0.26171875 0.7578125
vt 0.26171875 0.75
vt 0.25390625 0.75
vt 0.25390625 0.7578125
vt 0.26171875 0.7578125
vn 0 0 -1
vn 1 0 0
vn 0 0 1
vn -1 0 0
vn 0 1 0
vn 0 -1 0
usemtl m_d705bc15-3655-67f5-5943-974c5a7300bd
f 281/841/211 282/842/211 283/843/211 284/844/211
f 285/845/212 281/846/212 284/847/212 286/848/212
f 287/849/213 285/850/213 286/851/213 288/852/213
f 282/853/214 287/854/214 288/855/214 283/856/214
f 288/857/215 286/858/215 284/859/215 283/860/215
f 282/861/216 281/862/216 285/863/216 287/864/216
o cube
v 2.0625 6.4375 -0.0625
v 2 6.4375 -0.0625
v 2 6.6875 -0.0625
v 2.0625 6.6875 -0.0625
v 2.0625 6.4375 0.0625
v 2.0625 6.6875 0.0625
v 2 6.4375 0.0625
v 2 6.6875 0.0625
vt 0.25390625 0.734375
vt 0.2578125 0.734375
vt 0.2578125 0.75
vt 0.25390625 0.75
vt 0.2265625 0.78125
vt 0.234375 0.78125
vt 0.234375 0.796875
vt 0.2265625 0.796875
vt 0.2578125 0.875
vt 0.26171875 0.875
vt 0.26171875 0.890625
vt 0.2578125 0.890625
vt 0.2265625 0.765625
vt 0.234375 0.765625
vt 0.234375 0.78125
vt 0.2265625 0.78125
vt 0.26953125 0.875
vt 0.265625 0.875
vt 0.265625 0.8671875
vt 0.26953125 0.8671875
vt 0.26953125 0.859375
vt 0.265625 0.859375
vt 0.265625 0.8671875
vt 0.26953125 0.8671875
vn 0 0 -1
vn 1 0 0
vn 0 0 1
vn -1 0 0
vn 0 1 0
vn 0 -1 0
usemtl m_d705bc15-3655-67f5-5943-974c5a7300bd
f 289/865/217 290/866/217 291/867/217 292/868/217
f 293/869/218 289/870/218 292/871/218 294/872/218
f 295/873/219 293/874/219 294/875/219 296/876/219
f 290/877/220 295/878/220 296/879/220 291/880/220
f 296/881/221 294/882/221 292/883/221 291/884/221
f 290/885/222 289/886/222 293/887/222 295/888/222
o cube
v 5.3125 6.375 -0.0625
v 5.1875 6.375 -0.0625
v 5.1875 6.4375 -0.0625
v 5.3125 6.4375 -0.0625
v 5.3125 6.375 0.0625
v 5.3125 6.4375 0.0625
v 5.1875 6.375 0.0625
v 5.1875 6.4375 0.0625
vt 0.26171875 0.77734375
vt 0.26953125 0.77734375
vt 0.26953125 0.78125
vt 0.26171875 0.78125
vt 0.265625 0.87890625
vt 0.2734375 0.87890625
vt 0.2734375 0.8828125
vt 0.265625 0.8828125
vt 0.265625 0.85546875
vt 0.2734375 0.85546875
vt 0.2734375 0.859375
vt 0.265625 0.859375
vt 0.265625 0.8515625
vt 0.2734375 0.8515625
vt 0.2734375 0.85546875
vt 0.265625 0.85546875
vt 0.265625 0.875
vt 0.2578125 0.875
vt 0.2578125 0.8671875
vt 0.265625 0.8671875
vt 0.265625 0.859375
vt 0.2578125 0.859375
vt 0.2578125 0.8671875
vt 0.265625 0.8671875
vn 0 0 -1
vn 1 0 0
vn 0 0 1
vn -1 0 0
vn 0 1 0
vn 0 -1 0
usemtl m_d705bc15-3655-67f5-5943-974c5a7300bd
f 297/889/223 298/890/223 299/891/223 300/892/223
f 301/893/224 297/894/224 300/895/224 302/896/224
f 303/897/225 301/898/225 302/899/225 304/900/225
f 298/901/226 303/902/226 304/903/226 299/904/226
f 304/905/227 302/906/227 300/907/227 299/908/227
f 298/909/228 297/910/228 301/911/228 303/912/228
o cube
v 5.3125 6.25 -0.0625
v 5.25 6.25 -0.0625
v 5.25 6.4375 -0.0625
v 5.3125 6.4375 -0.0625
v 5.3125 6.25 0.0625
v 5.3125 6.4375 0.0625
v 5.25 6.25 0.0625
v 5.25 6.4375 0.0625
vt 0.26171875 0.87890625
vt 0.265625 0.87890625
vt 0.265625 0.890625
vt 0.26171875 0.890625
vt 0.234375 0.8359375
vt 0.2421875 0.8359375
vt 0.2421875 0.84765625
vt 0.234375 0.84765625
vt 0.140625 0.7265625
vt 0.14453125 0.7265625
vt 0.14453125 0.73828125
vt 0.140625 0.73828125
vt 0.15625 0.75390625
vt 0.1640625 0.75390625
vt 0.1640625 0.765625
vt 0.15625 0.765625
vt 0.15234375 0.734375
vt 0.1484375 0.734375
vt 0.1484375 0.7265625
vt 0.15234375 0.7265625
vt 0.15625 0.7265625
vt 0.15234375 0.7265625
vt 0.15234375 0.734375
vt 0.15625 0.734375
vn 0 0 -1
vn 1 0 0
vn 0 0 1
vn -1 0 0
vn 0 1 0
vn 0 -1 0
usemtl m_d705bc15-3655-67f5-5943-974c5a7300bd
f 305/913/229 306/914/229 307/915/229 308/916/229
f 309/917/230 305/918/230 308/919/230 310/920/230
f 311/921/231 309/922/231 310/923/231 312/924/231
f 306/925/232 311/926/232 312/927/232 307/928/232
f 312/929/233 310/930/233 308/931/233 307/932/233
f 306/933/234 305/934/234 309/935/234 311/936/234
o cube
v 5.375 6.375 -0.0625
v 5.25 6.375 -0.0625
v 5.25 6.4375 -0.0625
v 5.375 6.4375 -0.0625
v 5.375 6.375 0.0625
v 5.375 6.4375 0.0625
v 5.25 6.375 0.0625
v 5.25 6.4375 0.0625
vt 0.265625 0.83203125
vt 0.2734375 0.83203125
vt 0.2734375 0.8359375
vt 0.265625 0.8359375
vt 0.265625 0.828125
vt 0.2734375 0.828125
vt 0.2734375 0.83203125
vt 0.265625 0.83203125
vt 0.265625 0.82421875
vt 0.2734375 0.82421875
vt 0.2734375 0.828125
vt 0.265625 0.828125
vt 0.265625 0.8203125
vt 0.2734375 0.8203125
vt 0.2734375 0.82421875
vt 0.265625 0.82421875
vt 0.265625 0.859375
vt 0.2578125 0.859375
vt 0.2578125 0.8515625
vt 0.265625 0.8515625
vt 0.15625 0.734375
vt 0.1484375 0.734375
vt 0.1484375 0.7421875
vt 0.15625 0.7421875
vn 0 0 -1
vn 1 0 0
vn 0 0 1
vn -1 0 0
vn 0 1 0
vn 0 -1 0
usemtl m_d705bc15-3655-67f5-5943-974c5a7300bd
f 313/937/235 314/938/235 315/939/235 316/940/235
f 317/941/236 313/942/236 316/943/236 318/944/236
f 319/945/237 317/946/237 318/947/237 320/948/237
f 314/949/238 319/950/238 320/951/238 315/952/238
f 320/953/239 318/954/239 316/955/239 315/956/239
f 314/957/240 313/958/240 317/959/240 319/960/240
o cube
v -0.0625 1.375 -0.1875
v -0.125 1.375 -0.1875
v -0.125 8.1875 -0.1875
v -0.0625 8.1875 -0.1875
v -0.0625 1.375 0.1875
v -0.0625 8.1875 0.1875
v -0.125 1.375 0.1875
v -0.125 8.1875 0.1875
vt 0.125 0.484375
vt 0.12890625 0.484375
vt 0.12890625 0.91015625
vt 0.125 0.91015625
vt 0 0.515625
vt 0.0234375 0.515625
vt 0.0234375 0.94140625
vt 0 0.94140625
vt 0.12890625 0.484375
vt 0.1328125 0.484375
vt 0.1328125 0.91015625
vt 0.12890625 0.91015625
vt 0.0234375 0.515625
vt 0.046875 0.515625
vt 0.046875 0.94140625
vt 0.0234375 0.94140625
vt 0.17578125 0.76953125
vt 0.171875 0.76953125
vt 0.171875 0.74609375
vt 0.17578125 0.74609375
vt 0.1796875 0.74609375
vt 0.17578125 0.74609375
vt 0.17578125 0.76953125
vt 0.1796875 0.76953125
vn 0 0 -1
vn 1 0 0
vn 0 0 1
vn -1 0 0
vn 0 1 0
vn 0 -1 0
usemtl m_d705bc15-3655-67f5-5943-974c5a7300bd
f 321/961/241 322/962/241 323/963/241 324/964/241
f 325/965/242 321/966/242 324/967/242 326/968/242
f 327/969/243 325/970/243 326/971/243 328/972/243
f 322/973/244 327/974/244 328/975/244 323/976/244
f 328/977/245 326/978/245 324/979/245 323/980/245
f 322/981/246 321/982/246 325/983/246 327/984/246
o cube
v 0.125 1.375 -0.1875
v 0.0625 1.375 -0.1875
v 0.0625 8.1875 -0.1875
v 0.125 8.1875 -0.1875
v 0.125 1.375 0.1875
v 0.125 8.1875 0.1875
v 0.0625 1.375 0.1875
v 0.0625 8.1875 0.1875
vt 0.1328125 0.484375
vt 0.13671875 0.484375
vt 0.13671875 0.91015625
vt 0.1328125 0.91015625
vt 0.046875 0.515625
vt 0.0703125 0.515625
vt 0.0703125 0.94140625
vt 0.046875 0.94140625
vt 0.13671875 0.484375
vt 0.140625 0.484375
vt 0.140625 0.91015625
vt 0.13671875 0.91015625
vt 0.0703125 0.515625
vt 0.09375 0.515625
vt 0.09375 0.94140625
vt 0.0703125 0.94140625
vt 0.15234375 0.765625
vt 0.1484375 0.765625
vt 0.1484375 0.7421875
vt 0.15234375 0.7421875
vt 0.15625 0.7421875
vt 0.15234375 0.7421875
vt 0.15234375 0.765625
vt 0.15625 0.765625
vn 0 0 -1
vn 1 0 0
vn 0 0 1
vn -1 0 0
vn 0 1 0
vn 0 -1 0
usemtl m_d705bc15-3655-67f5-5943-974c5a7300bd
f 329/985/247 330/986/247 331/987/247 332/988/247
f 333/989/248 329/990/248 332/991/248 334/992/248
f 335/993/249 333/994/249 334/995/249 336/996/249
f 330/997/250 335/998/250 336/999/250 331/1000/250
f 336/1001/251 334/1002/251 332/1003/251 331/1004/251
f 330/1005/252 329/1006/252 333/1007/252 335/1008/252
o cube
v 0.0625 2.9375 -0.0625
v -0.0625 2.9375 -0.0625
v -0.0625 7.6875 -0.0625
v 0.0625 7.6875 -0.0625
v 0.0625 2.9375 0.0625
v 0.0625 7.6875 0.0625
v -0.0625 2.9375 0.0625
v -0.0625 7.6875 0.0625
vt 0.09375 0.515625
vt 0.1015625 0.515625
vt 0.1015625 1
vt 0.09375 1
vt 0.1015625 0.515625
vt 0.109375 0.515625
vt 0.109375 1
vt 0.1015625 1
vt 0.109375 0.515625
vt 0.1171875 0.515625
vt 0.1171875 1
vt 0.109375 1
vt 0.1171875 0.515625
vt 0.125 0.515625
vt 0.125 1
vt 0.1171875 1
vt 0.26171875 0.765625
vt 0.25390625 0.765625
vt 0.25390625 0.7578125
vt 0.26171875 0.7578125
vt 0.26171875 0.75
vt 0.25390625 0.75
vt 0.25390625 0.7578125
vt 0.26171875 0.7578125
vn 0 0 -1
vn 1 0 0
vn 0 0 1
vn -1 0 0
vn 0 1 0
vn 0 -1 0
usemtl m_d705bc15-3655-67f5-5943-974c5a7300bd
f 337/1009/253 338/1010/253 339/1011/253 340/1012/253
f 341/1013/254 337/1014/254 340/1015/254 342/1016/254
f 343/1017/255 341/1018/255 342/1019/255 344/1020/255
f 338/1021/256 343/1022/256 344/1023/256 339/1024/256
f 344/1025/257 342/1026/257 340/1027/257 339/1028/257
f 338/1029/258 337/1030/258 341/1031/258 343/1032/258
o cube
v 0.0625 2.25 -0.0625
v -0.0625 2.25 -0.0625
v -0.0625 8.25 -0.0625
v 0.0625 8.25 -0.0625
v 0.0625 2.25 0.0625
v 0.0625 8.25 0.0625
v -0.0625 2.25 0.0625
v -0.0625 8.25 0.0625
vt 0.09375 0.515625
vt 0.1015625 0.515625
vt 0.1015625 1
vt 0.09375 1
vt 0.1015625 0.515625
vt 0.109375 0.515625
vt 0.109375 1
vt 0.1015625 1
vt 0.109375 0.515625
vt 0.1171875 0.515625
vt 0.1171875 1
vt 0.109375 1
vt 0.1171875 0.515625
vt 0.125 0.515625
vt 0.125 1
vt 0.1171875 1
vt 0.26171875 0.765625
vt 0.25390625 0.765625
vt 0.25390625 0.7578125
vt 0.26171875 0.7578125
vt 0.26171875 0.75
vt 0.25390625 0.75
vt 0.25390625 0.7578125
vt 0.26171875 0.7578125
vn 0 0 -1
vn 1 0 0
vn 0 0 1
vn -1 0 0
vn 0 1 0
vn 0 -1 0
usemtl m_d705bc15-3655-67f5-5943-974c5a7300bd
f 345/1033/259 346/1034/259 347/1035/259 348/1036/259
f 349/1037/260 345/1038/260 348/1039/260 350/1040/260
f 351/1041/261 349/1042/261 350/1043/261 352/1044/261
f 346/1045/262 351/1046/262 352/1047/262 347/1048/262
f 352/1049/263 350/1050/263 348/1051/263 347/1052/263
f 346/1053/264 345/1054/264 349/1055/264 351/1056/264
o cube
v -0.0625 1.1875 -0.1875
v -0.125 1.1875 -0.1875
v -0.125 8 -0.1875
v -0.0625 8 -0.1875
v -0.0625 1.1875 0.1875
v -0.0625 8 0.1875
v -0.125 1.1875 0.1875
v -0.125 8 0.1875
vt 0.125 0.484375
vt 0.12890625 0.484375
vt 0.12890625 0.91015625
vt 0.125 0.91015625
vt 0 0.515625
vt 0.0234375 0.515625
vt 0.0234375 0.94140625
vt 0 0.94140625
vt 0.12890625 0.484375
vt 0.1328125 0.484375
vt 0.1328125 0.91015625
vt 0.12890625 0.91015625
vt 0.0234375 0.515625
vt 0.046875 0.515625
vt 0.046875 0.94140625
vt 0.0234375 0.94140625
vt 0.17578125 0.76953125
vt 0.171875 0.76953125
vt 0.171875 0.74609375
vt 0.17578125 0.74609375
vt 0.1796875 0.74609375
vt 0.17578125 0.74609375
vt 0.17578125 0.76953125
vt 0.1796875 0.76953125
vn 0 0 -1
vn 1 0 0
vn 0 0 1
vn -1 0 0
vn 0 1 0
vn 0 -1 0
usemtl m_d705bc15-3655-67f5-5943-974c5a7300bd
f 353/1057/265 354/1058/265 355/1059/265 356/1060/265
f 357/1061/266 353/1062/266 356/1063/266 358/1064/266
f 359/1065/267 357/1066/267 358/1067/267 360/1068/267
f 354/1069/268 359/1070/268 360/1071/268 355/1072/268
f 360/1073/269 358/1074/269 356/1075/269 355/1076/269
f 354/1077/270 353/1078/270 357/1079/270 359/1080/270
o cube
v 0.0625 1.75 -0.0625
v -0.0625 1.75 -0.0625
v -0.0625 8.375 -0.0625
v 0.0625 8.375 -0.0625
v 0.0625 1.75 0.0625
v 0.0625 8.375 0.0625
v -0.0625 1.75 0.0625
v -0.0625 8.375 0.0625
vt 0.09375 0.515625
vt 0.1015625 0.515625
vt 0.1015625 1
vt 0.09375 1
vt 0.1015625 0.515625
vt 0.109375 0.515625
vt 0.109375 1
vt 0.1015625 1
vt 0.109375 0.515625
vt 0.1171875 0.515625
vt 0.1171875 1
vt 0.109375 1
vt 0.1171875 0.515625
vt 0.125 0.515625
vt 0.125 1
vt 0.1171875 1
vt 0.26171875 0.765625
vt 0.25390625 0.765625
vt 0.25390625 0.7578125
vt 0.26171875 0.7578125
vt 0.26171875 0.75
vt 0.25390625 0.75
vt 0.25390625 0.7578125
vt 0.26171875 0.7578125
vn 0 0 -1
vn 1 0 0
vn 0 0 1
vn -1 0 0
vn 0 1 0
vn 0 -1 0
usemtl m_d705bc15-3655-67f5-5943-974c5a7300bd
f 361/1081/271 362/1082/271 363/1083/271 364/1084/271
f 365/1085/272 361/1086/272 364/1087/272 366/1088/272
f 367/1089/273 365/1090/273 366/1091/273 368/1092/273
f 362/1093/274 367/1094/274 368/1095/274 363/1096/274
f 368/1097/275 366/1098/275 364/1099/275 363/1100/275
f 362/1101/276 361/1102/276 365/1103/276 367/1104/276
o cube
v 0.125 1.125 -0.1875
v 0.0625 1.125 -0.1875
v 0.0625 7.9375 -0.1875
v 0.125 7.9375 -0.1875
v 0.125 1.125 0.1875
v 0.125 7.9375 0.1875
v 0.0625 1.125 0.1875
v 0.0625 7.9375 0.1875
vt 0.1328125 0.484375
vt 0.13671875 0.484375
vt 0.13671875 0.91015625
vt 0.1328125 0.91015625
vt 0.046875 0.515625
vt 0.0703125 0.515625
vt 0.0703125 0.94140625
vt 0.046875 0.94140625
vt 0.13671875 0.484375
vt 0.140625 0.484375
vt 0.140625 0.91015625
vt 0.13671875 0.91015625
vt 0.0703125 0.515625
vt 0.09375 0.515625
vt 0.09375 0.94140625
vt 0.0703125 0.94140625
vt 0.15234375 0.765625
vt 0.1484375 0.765625
vt 0.1484375 0.7421875
vt 0.15234375 0.7421875
vt 0.15625 0.7421875
vt 0.15234375 0.7421875
vt 0.15234375 0.765625
vt 0.15625 0.765625
vn 0 0 -1
vn 1 0 0
vn 0 0 1
vn -1 0 0
vn 0 1 0
vn 0 -1 0
usemtl m_d705bc15-3655-67f5-5943-974c5a7300bd
f 369/1105/277 370/1106/277 371/1107/277 372/1108/277
f 373/1109/278 369/1110/278 372/1111/278 374/1112/278
f 375/1113/279 373/1114/279 374/1115/279 376/1116/279
f 370/1117/280 375/1118/280 376/1119/280 371/1120/280
f 376/1121/281 374/1122/281 372/1123/281 371/1124/281
f 370/1125/282 369/1126/282 373/1127/282 375/1128/282
o cube
v -0.0625 1.125 -0.1875
v -0.125 1.125 -0.1875
v -0.125 7.9375 -0.1875
v -0.0625 7.9375 -0.1875
v -0.0625 1.125 0.1875
v -0.0625 7.9375 0.1875
v -0.125 1.125 0.1875
v -0.125 7.9375 0.1875
vt 0.125 0.484375
vt 0.12890625 0.484375
vt 0.12890625 0.91015625
vt 0.125 0.91015625
vt 0 0.515625
vt 0.0234375 0.515625
vt 0.0234375 0.94140625
vt 0 0.94140625
vt 0.12890625 0.484375
vt 0.1328125 0.484375
vt 0.1328125 0.91015625
vt 0.12890625 0.91015625
vt 0.0234375 0.515625
vt 0.046875 0.515625
vt 0.046875 0.94140625
vt 0.0234375 0.94140625
vt 0.17578125 0.76953125
vt 0.171875 0.76953125
vt 0.171875 0.74609375
vt 0.17578125 0.74609375
vt 0.1796875 0.74609375
vt 0.17578125 0.74609375
vt 0.17578125 0.76953125
vt 0.1796875 0.76953125
vn 0 0 -1
vn 1 0 0
vn 0 0 1
vn -1 0 0
vn 0 1 0
vn 0 -1 0
usemtl m_d705bc15-3655-67f5-5943-974c5a7300bd
f 377/1129/283 378/1130/283 379/1131/283 380/1132/283
f 381/1133/284 377/1134/284 380/1135/284 382/1136/284
f 383/1137/285 381/1138/285 382/1139/285 384/1140/285
f 378/1141/286 383/1142/286 384/1143/286 379/1144/286
f 384/1145/287 382/1146/287 380/1147/287 379/1148/287
f 378/1149/288 377/1150/288 381/1151/288 383/1152/288
o cube
v 0.0625 0.0625 -0.0625
v -0.0625 0.0625 -0.0625
v -0.0625 7.8125 -0.0625
v 0.0625 7.8125 -0.0625
v 0.0625 0.0625 0.0625
v 0.0625 7.8125 0.0625
v -0.0625 0.0625 0.0625
v -0.0625 7.8125 0.0625
vt 0.09375 0.515625
vt 0.1015625 0.515625
vt 0.1015625 1
vt 0.09375 1
vt 0.1015625 0.515625
vt 0.109375 0.515625
vt 0.109375 1
vt 0.1015625 1
vt 0.109375 0.515625
vt 0.1171875 0.515625
vt 0.1171875 1
vt 0.109375 1
vt 0.1171875 0.515625
vt 0.125 0.515625
vt 0.125 1
vt 0.1171875 1
vt 0.26171875 0.765625
vt 0.25390625 0.765625
vt 0.25390625 0.7578125
vt 0.26171875 0.7578125
vt 0.26171875 0.75
vt 0.25390625 0.75
vt 0.25390625 0.7578125
vt 0.26171875 0.7578125
vn 0 0 -1
vn 1 0 0
vn 0 0 1
vn -1 0 0
vn 0 1 0
vn 0 -1 0
usemtl m_d705bc15-3655-67f5-5943-974c5a7300bd
f 385/1153/289 386/1154/289 387/1155/289 388/1156/289
f 389/1157/290 385/1158/290 388/1159/290 390/1160/290
f 391/1161/291 389/1162/291 390/1163/291 392/1164/291
f 386/1165/292 391/1166/292 392/1167/292 387/1168/292
f 392/1169/293 390/1170/293 388/1171/293 387/1172/293
f 386/1173/294 385/1174/294 389/1175/294 391/1176/294
o cube
v -0.0625 0.0625 -0.1875
v -0.125 0.0625 -0.1875
v -0.125 6.875 -0.1875
v -0.0625 6.875 -0.1875
v -0.0625 0.0625 0.1875
v -0.0625 6.875 0.1875
v -0.125 0.0625 0.1875
v -0.125 6.875 0.1875
vt 0.125 0.484375
vt 0.12890625 0.484375
vt 0.12890625 0.91015625
vt 0.125 0.91015625
vt 0 0.515625
vt 0.0234375 0.515625
vt 0.0234375 0.94140625
vt 0 0.94140625
vt 0.12890625 0.484375
vt 0.1328125 0.484375
vt 0.1328125 0.91015625
vt 0.12890625 0.91015625
vt 0.0234375 0.515625
vt 0.046875 0.515625
vt 0.046875 0.94140625
vt 0.0234375 0.94140625
vt 0.17578125 0.76953125
vt 0.171875 0.76953125
vt 0.171875 0.74609375
vt 0.17578125 0.74609375
vt 0.1796875 0.74609375
vt 0.17578125 0.74609375
vt 0.17578125 0.76953125
vt 0.1796875 0.76953125
vn 0 0 -1
vn 1 0 0
vn 0 0 1
vn -1 0 0
vn 0 1 0
vn 0 -1 0
usemtl m_d705bc15-3655-67f5-5943-974c5a7300bd
f 393/1177/295 394/1178/295 395/1179/295 396/1180/295
f 397/1181/296 393/1182/296 396/1183/296 398/1184/296
f 399/1185/297 397/1186/297 398/1187/297 400/1188/297
f 394/1189/298 399/1190/298 400/1191/298 395/1192/298
f 400/1193/299 398/1194/299 396/1195/299 395/1196/299
f 394/1197/300 393/1198/300 397/1199/300 399/1200/300
o cube
v 0.125 0.0625 -0.1875
v 0.0625 0.0625 -0.1875
v 0.0625 6.875 -0.1875
v 0.125 6.875 -0.1875
v 0.125 0.0625 0.1875
v 0.125 6.875 0.1875
v 0.0625 0.0625 0.1875
v 0.0625 6.875 0.1875
vt 0.1328125 0.484375
vt 0.13671875 0.484375
vt 0.13671875 0.91015625
vt 0.1328125 0.91015625
vt 0.046875 0.515625
vt 0.0703125 0.515625
vt 0.0703125 0.94140625
vt 0.046875 0.94140625
vt 0.13671875 0.484375
vt 0.140625 0.484375
vt 0.140625 0.91015625
vt 0.13671875 0.91015625
vt 0.0703125 0.515625
vt 0.09375 0.515625
vt 0.09375 0.94140625
vt 0.0703125 0.94140625
vt 0.15234375 0.765625
vt 0.1484375 0.765625
vt 0.1484375 0.7421875
vt 0.15234375 0.7421875
vt 0.15625 0.7421875
vt 0.15234375 0.7421875
vt 0.15234375 0.765625
vt 0.15625 0.765625
vn 0 0 -1
vn 1 0 0
vn 0 0 1
vn -1 0 0
vn 0 1 0
vn 0 -1 0
usemtl m_d705bc15-3655-67f5-5943-974c5a7300bd
f 401/1201/301 402/1202/301 403/1203/301 404/1204/301
f 405/1205/302 401/1206/302 404/1207/302 406/1208/302
f 407/1209/303 405/1210/303 406/1211/303 408/1212/303
f 402/1213/304 407/1214/304 408/1215/304 403/1216/304
f 408/1217/305 406/1218/305 404/1219/305 403/1220/305
f 402/1221/306 401/1222/306 405/1223/306 407/1224/306